<svg width="115" height="31" viewBox="0 0 115 31" fill="none" xmlns="http://www.w3.org/2000/svg">
<g clip-path="url(#clip0)">
<path d="M15.8805 7.45125C15.8159 7.3667 15.5898 7.20701 15.2022 6.97216C14.8145 6.73731 14.33 6.49307 13.7486 6.23755C13.1671 5.98204 12.5315 5.75846 11.8427 5.56683C11.1703 5.3775 10.4746 5.28077 9.77538 5.27937C7.88 5.27937 6.93278 5.90782 6.93278 7.16379C6.93278 7.54707 7.03444 7.86646 7.23965 8.12198C7.44391 8.37749 7.74509 8.6067 8.14412 8.80867C8.54219 9.01064 9.04288 9.19758 9.64523 9.36761L10.981 9.73679L11.7458 9.94252C12.8441 10.2403 13.8341 10.5653 14.7176 10.9167C15.6003 11.268 16.3489 11.7048 16.9627 12.2262C17.5749 12.7459 18.0608 13.3955 18.384 14.1266C18.7165 14.8715 18.8846 15.7658 18.8846 16.8095C18.8846 18.0871 18.6424 19.1674 18.1578 20.0513C17.6733 20.9344 17.032 21.6483 16.2359 22.1913C15.4378 22.7342 14.5238 23.1279 13.4902 23.373C12.4565 23.6173 11.3905 23.7403 10.2922 23.7403C8.5424 23.7305 6.80263 23.4779 5.12385 22.9898C4.28399 22.7455 3.47073 22.4524 2.68502 22.1114C1.92302 21.784 1.19287 21.3885 0.503662 20.9297L2.82943 16.3623C2.91494 16.4685 3.19521 16.6714 3.66929 16.9692C4.14243 17.267 4.72957 17.5657 5.42977 17.8635C6.12902 18.1613 6.90998 18.4271 7.77169 18.662C8.63245 18.8968 9.50461 19.0133 10.3882 19.0133C12.2617 19.0133 13.1985 18.4497 13.1985 17.3205C13.1985 16.895 13.0579 16.5436 12.7786 16.2665C12.4983 15.9894 12.1107 15.7395 11.6157 15.5159C11.1513 15.3104 10.674 15.1347 10.1868 14.9899L8.56975 14.5249L7.64248 14.2543C6.58695 13.9349 5.67204 13.5892 4.89678 13.2163C4.12152 12.8434 3.48118 12.4122 2.97479 11.9228C2.47779 11.4466 2.09195 10.8689 1.84421 10.23C1.59624 9.59119 1.47273 8.84625 1.47273 7.99422C1.47273 6.80119 1.69885 5.74813 2.15108 4.83222C2.58706 3.93705 3.21544 3.14678 3.99232 2.51661C4.79085 1.87614 5.70659 1.3936 6.68956 1.09531C7.71183 0.775916 8.79396 0.616219 9.93595 0.616219C10.7321 0.616219 11.5188 0.69137 12.294 0.839795C13.0693 0.989158 13.8122 1.18079 14.5229 1.4147C15.2335 1.64955 15.8957 1.9154 16.5085 2.21319C17.1232 2.51098 17.6885 2.8097 18.2053 3.10749L15.8796 7.45125H15.8805ZM38.1349 23.4848H32.9666V14.0627C32.9666 12.9768 32.7509 12.1783 32.3205 11.6672C31.8892 11.1562 31.2973 10.9007 30.5439 10.9007C30.2418 10.9007 29.914 10.9702 29.5587 11.1083C29.1849 11.2575 28.8363 11.4621 28.525 11.7152C28.1807 11.9916 27.8713 12.3079 27.6034 12.6574C27.3212 13.0235 27.1029 13.4338 26.9574 13.8711V23.4848H21.789V0.169067H26.9574V9.52731C27.5566 8.55033 28.4104 7.75056 29.4295 7.2117C30.4517 6.66873 31.5766 6.39725 32.8051 6.39725C33.9461 6.39725 34.8667 6.59452 35.5669 6.98813C36.2662 7.38267 36.8048 7.88243 37.182 8.48928C37.5583 9.09613 37.8119 9.77719 37.9411 10.5334C38.0703 11.2896 38.1349 12.0289 38.1349 12.7532V23.4848ZM49.8588 23.8042C48.4156 23.8042 47.1292 23.5694 45.9987 23.1016C44.8681 22.6328 43.9152 21.9996 43.139 21.2012C42.3652 20.4045 41.7662 19.4586 41.3794 18.4224C40.9801 17.3652 40.7773 16.2453 40.7809 15.1167C40.7809 13.9669 40.9804 12.865 41.3794 11.811C41.7665 10.7748 42.3659 9.82877 43.1399 9.03225C43.9152 8.23376 44.8681 7.59498 45.9987 7.11589C47.1292 6.63679 48.4156 6.39725 49.8588 6.39725C51.3019 6.39725 52.5826 6.63679 53.7028 7.11589C54.8229 7.59498 55.7701 8.23376 56.5454 9.03225C57.3207 9.83082 57.925 10.7759 58.322 11.811C58.7314 12.8659 58.9394 13.9868 58.9357 15.1167C58.9393 16.2453 58.7365 17.3652 58.3372 18.4224C57.9504 19.4586 57.3514 20.4045 56.5777 21.2012C55.8024 21.9996 54.8486 22.6328 53.718 23.1016C52.5874 23.5703 51.3019 23.8042 49.8588 23.8042ZM46.0785 15.1167C46.0785 16.4366 46.4338 17.4962 47.1444 18.2947C47.8551 19.0932 48.7596 19.4924 49.8578 19.4924C50.3711 19.4979 50.8791 19.3887 51.3437 19.173C51.796 18.9598 52.1893 18.662 52.5218 18.2787C52.8714 17.8686 53.1402 17.3973 53.3142 16.8893C53.5126 16.3192 53.6109 15.7196 53.6049 15.1167C53.6049 13.7969 53.2496 12.7372 52.5389 11.9387C51.8283 11.1402 50.9343 10.741 49.8578 10.741C49.3459 10.7369 48.8391 10.8434 48.3731 11.0531C47.9071 11.2627 47.4929 11.5704 47.1596 11.9547C46.8107 12.365 46.5426 12.8362 46.3692 13.3441C46.1708 13.9142 46.0725 14.5138 46.0785 15.1167ZM72.4676 11.0923C71.2182 11.1139 70.0877 11.3159 69.0758 11.6992C68.064 12.0825 67.3315 12.6574 66.8793 13.4239V23.4848H61.7109V6.71664H66.4593V10.1022C67.0408 8.97401 67.7894 8.09004 68.7044 7.45125C69.6193 6.81246 70.594 6.48273 71.6277 6.46113H72.1446C72.2519 6.46113 72.3602 6.47146 72.4676 6.49307V11.0923ZM85.8388 22.5905C85.0442 22.9174 84.2297 23.1947 83.4 23.4209C82.4851 23.6765 81.5645 23.8042 80.6382 23.8042C79.9921 23.8042 79.3841 23.7244 78.814 23.5647C78.2643 23.416 77.7523 23.1548 77.311 22.7981C76.8806 22.4468 76.5415 21.9837 76.2945 21.4088C76.0455 20.8339 75.922 20.1415 75.922 19.3327V10.5813H73.7578V6.71664H75.922V1.38276H81.0904V6.71664H84.5468V10.5813H81.0904V17.576C81.0904 18.1303 81.2301 18.5286 81.5103 18.7738C81.7906 19.018 82.1459 19.1411 82.5763 19.1411C82.9639 19.1411 83.362 19.0772 83.7715 18.9494C84.18 18.8217 84.5363 18.6836 84.8375 18.5342L85.8388 22.5905ZM88.0022 0.169067H93.1705V17.5122C93.1705 18.7897 93.7197 19.4285 94.8179 19.4285C95.0764 19.4285 95.3614 19.3909 95.674 19.3167C95.9865 19.2416 96.2725 19.1307 96.53 18.9814L97.2083 22.8141C96.5623 23.1119 95.8193 23.3467 94.9795 23.5168C94.1396 23.6868 93.3539 23.7723 92.6214 23.7723C91.1355 23.7723 89.9944 23.389 89.1973 22.6225C88.4002 21.8559 88.0022 20.7484 88.0022 19.3008V0.169067ZM98.8861 26.008C99.3175 26.1574 99.7213 26.2636 100.097 26.3274C100.433 26.3876 100.774 26.4196 101.115 26.4232C101.74 26.4232 102.225 26.21 102.569 25.7845C102.913 25.3589 103.226 24.5914 103.505 23.4848L97.0449 6.71664H102.375L106.316 19.1091L109.707 6.71664H114.553L108.092 26.1997C107.666 27.5481 106.817 28.7279 105.67 29.5693C104.507 30.4316 103.129 30.8628 101.535 30.8628C101.096 30.8622 100.659 30.8248 100.227 30.751C99.7691 30.672 99.3205 30.549 98.8871 30.3837V26.008H98.8861Z" fill="#DEDEDE"/>
</g>
<defs>
<clipPath id="clip0">
<rect width="114.958" height="31" fill="white"/>
</clipPath>
</defs>
</svg>
